<?xml version="1.0" standalone="no"?><!DOCTYPE svg PUBLIC "-//W3C//DTD SVG 1.1//EN" "http://www.w3.org/Graphics/SVG/1.1/DTD/svg11.dtd"><svg t="1717691437556" class="icon" viewBox="0 0 1024 1024" version="1.1" xmlns="http://www.w3.org/2000/svg" p-id="1641" xmlns:xlink="http://www.w3.org/1999/xlink" width="200" height="200"><path d="M430.933333 345.6h140.8c12.8 0 23.466667-10.666667 23.466667-23.466667 0-12.8-10.666667-23.466667-23.466667-23.466666h-140.8c-12.8 0-23.466667 10.666667-23.466666 23.466666 0 12.8 10.666667 23.466667 23.466666 23.466667zM288 345.6h72.533333c12.8 0 23.466667-10.666667 23.466667-23.466667 0-12.8-10.666667-23.466667-23.466667-23.466666h-72.533333c-12.8 0-23.466667 10.666667-23.466667 23.466666 0 12.8 10.666667 23.466667 23.466667 23.466667zM202.666667 345.6h17.066666c12.8 0 23.466667-10.666667 23.466667-23.466667 0-12.8-10.666667-23.466667-23.466667-23.466666h-17.066666c-12.8 0-23.466667 10.666667-23.466667 23.466666 0 12.8 8.533333 23.466667 23.466667 23.466667zM467.2 420.266667h-177.066667c-12.8 0-23.466667 10.666667-23.466666 23.466666 0 12.8 10.666667 23.466667 23.466666 23.466667h177.066667c12.8 0 23.466667-10.666667 23.466667-23.466667 0-12.8-10.666667-23.466667-23.466667-23.466666zM202.666667 467.2h17.066666c12.8 0 23.466667-10.666667 23.466667-23.466667 0-12.8-10.666667-23.466667-23.466667-23.466666h-17.066666c-12.8 0-23.466667 10.666667-23.466667 23.466666 0 12.8 8.533333 23.466667 23.466667 23.466667zM433.066667 539.733333h-145.066667c-12.8 0-23.466667 10.666667-23.466667 23.466667 0 12.8 10.666667 23.466667 23.466667 23.466667h145.066667c12.8 0 23.466667-10.666667 23.466666-23.466667 0-12.8-10.666667-23.466667-23.466666-23.466667zM219.733333 539.733333h-17.066666c-12.8 0-23.466667 10.666667-23.466667 23.466667 0 12.8 10.666667 23.466667 23.466667 23.466667h17.066666c12.8 0 23.466667-10.666667 23.466667-23.466667 0-12.8-10.666667-23.466667-23.466667-23.466667z" fill="#7F7F7F" p-id="1642"></path><path d="M919.466667 413.866667c-29.866667-40.533333-72.533333-70.4-121.6-85.333334V149.333333c0-40.533333-34.133333-74.666667-74.666667-74.666666H170.666667c-40.533333 0-74.666667 34.133333-74.666667 74.666666v725.333334c0 40.533333 34.133333 74.666667 74.666667 74.666666h552.533333c42.666667 0 74.666667-34.133333 74.666667-74.666666v-74.666667c49.066667-14.933333 89.6-44.8 121.6-85.333333 68.266667-89.6 68.266667-213.333333 0-300.8z m-748.8-292.266667h96v27.733333c0 40.533333 34.133333 74.666667 74.666666 74.666667h206.933334c40.533333 0 74.666667-34.133333 74.666666-74.666667v-27.733333h98.133334c14.933333 0 27.733333 12.8 27.733333 27.733333v168.533334c-8.533333-2.133333-19.2-2.133333-27.733333-2.133334-136.533333 0-247.466667 110.933333-247.466667 247.466667 0 136.533333 110.933333 247.466667 247.466667 247.466667 8.533333 0 19.2 0 27.733333-2.133334v64c0 14.933333-12.8 27.733333-27.733333 27.733334H170.666667c-14.933333 0-27.733333-12.8-27.733334-27.733334V149.333333c0-14.933333 12.8-27.733333 27.733334-27.733333z m753.066666 441.6c0 110.933333-89.6 200.533333-200.533333 200.533333s-200.533333-89.6-200.533333-200.533333 89.6-200.533333 200.533333-200.533333 200.533333 89.6 200.533333 200.533333z m-345.6-413.866667c0 14.933333-12.8 27.733333-27.733333 27.733334h-206.933333c-14.933333 0-27.733333-12.8-27.733334-27.733334v-27.733333h262.4v27.733333z" fill="#7F7F7F" p-id="1643"></path><path d="M659.2 443.733333v53.333334h-53.333333c-12.8 0-23.466667 10.666667-23.466667 23.466666v85.333334c0 12.8 10.666667 23.466667 23.466667 23.466666h53.333333v53.333334c0 12.8 10.666667 23.466667 23.466667 23.466666h85.333333c12.8 0 23.466667-10.666667 23.466667-23.466666v-53.333334h53.333333c12.8 0 23.466667-10.666667 23.466667-23.466666v-85.333334c0-12.8-10.666667-23.466667-23.466667-23.466666h-53.333333v-53.333334c0-12.8-10.666667-23.466667-23.466667-23.466666h-85.333333c-12.8 0-23.466667 10.666667-23.466667 23.466666z m108.8 100.266667h53.333333v38.4h-53.333333c-12.8 0-23.466667 10.666667-23.466667 23.466667v53.333333h-38.4v-53.333333c0-12.8-10.666667-23.466667-23.466666-23.466667h-53.333334v-38.4h53.333334c12.8 0 23.466667-10.666667 23.466666-23.466667v-53.333333h38.4v53.333333c0 12.8 10.666667 23.466667 23.466667 23.466667z" fill="#7F7F7F" p-id="1644"></path></svg>